<?xml version="1.0" encoding="UTF-8" standalone="no"?>
<svg
   width="75.050011pt"
   height="48.096874pt"
   viewBox="0 0 75.050013 48.096873"
   version="1.1"
   id="svg22"
   sodipodi:docname="tcr_plot_legend.svg"
   xmlns:inkscape="http://www.inkscape.org/namespaces/inkscape"
   xmlns:sodipodi="http://sodipodi.sourceforge.net/DTD/sodipodi-0.dtd"
   xmlns:xlink="http://www.w3.org/1999/xlink"
   xmlns="http://www.w3.org/2000/svg"
   xmlns:svg="http://www.w3.org/2000/svg"
   xmlns:rdf="http://www.w3.org/1999/02/22-rdf-syntax-ns#"
   xmlns:cc="http://creativecommons.org/ns#"
   xmlns:dc="http://purl.org/dc/elements/1.1/">
  <sodipodi:namedview
     id="namedview22"
     pagecolor="#ffffff"
     bordercolor="#000000"
     borderopacity="0.25"
     inkscape:showpageshadow="2"
     inkscape:pageopacity="0.0"
     inkscape:pagecheckerboard="0"
     inkscape:deskcolor="#d1d1d1"
     inkscape:document-units="pt" />
  <metadata
     id="metadata1">
    <rdf:RDF>
      <cc:Work>
        <dc:type
           rdf:resource="http://purl.org/dc/dcmitype/StillImage" />
        <dc:date>2026-02-10T11:12:13.488253</dc:date>
        <dc:format>image/svg+xml</dc:format>
        <dc:creator>
          <cc:Agent>
            <dc:title>Matplotlib v3.10.0, https://matplotlib.org/</dc:title>
          </cc:Agent>
        </dc:creator>
      </cc:Work>
    </rdf:RDF>
  </metadata>
  <defs
     id="defs1">
    <style
       type="text/css"
       id="style1">*{stroke-linejoin: round; stroke-linecap: butt}</style>
  </defs>
  <g
     id="figure_1"
     transform="translate(-335.17002,-45.972002)">
    <g
       id="axes_1">
      <g
         id="legend_1">
        <g
           id="patch_2">
          <path
             d="m 337.67,93.568875 h 70.05 q 2,0 2,-2 V 48.472 q 0,-2 -2,-2 h -70.05 q -2,0 -2,2 v 43.096875 q 0,2 2,2 z"
             style="opacity:0.8;fill:#ffffff;stroke:#cccccc;stroke-linejoin:miter"
             id="path2" />
        </g>
        <g
           id="line2d_1">
          <path
             d="m 339.67,54.570438 h 10 10"
             style="fill:none;stroke:#008000;stroke-width:1.5;stroke-linecap:square"
             id="path3" />
          <defs
             id="defs3">
            <path
               id="m5b4d5e8490"
               d="M -5,5 H 5 V -5 H -5 Z"
               style="stroke:#008000;stroke-linejoin:miter" />
          </defs>
          <g
             id="g3">
            <use
               xlink:href="#m5b4d5e8490"
               x="349.67001"
               y="54.570438"
               style="fill:#008000;stroke:#008000;stroke-linejoin:miter"
               id="use3" />
          </g>
        </g>
        <g
           id="text_1">
          <!-- CDR3α -->
          <g
             transform="matrix(0.1,0,0,-0.1,367.67,58.070438)"
             id="g8">
            <defs
               id="defs4">
              <path
                 id="DejaVuSans-43"
                 d="m 4122,4306 v -665 q -319,297 -680,443 -361,147 -767,147 -800,0 -1225,-489 -425,-489 -425,-1414 0,-922 425,-1411 425,-489 1225,-489 406,0 767,147 361,147 680,444 V 359 Q 3791,134 3420,21 3050,-91 2638,-91 1578,-91 968,557 359,1206 359,2328 q 0,1125 609,1773 610,649 1670,649 418,0 788,-111 371,-111 696,-333 z"
                 transform="scale(0.015625)" />
              <path
                 id="DejaVuSans-44"
                 d="M 1259,4147 V 519 h 763 q 966,0 1414,437 448,438 448,1382 0,937 -448,1373 -448,436 -1414,436 z m -631,519 h 1297 q 1356,0 1990,-564 635,-564 635,-1764 Q 4550,1131 3912,565 3275,0 1925,0 H 628 Z"
                 transform="scale(0.015625)" />
              <path
                 id="DejaVuSans-52"
                 d="m 2841,2188 q 203,-69 395,-294 192,-225 386,-619 L 4263,0 h -679 l -596,1197 q -232,469 -449,622 -217,153 -592,153 H 1259 V 0 H 628 v 4666 h 1425 q 800,0 1194,-335 394,-334 394,-1009 0,-441 -205,-732 -205,-290 -595,-402 z M 1259,4147 V 2491 h 794 q 456,0 689,211 233,211 233,620 0,409 -233,617 -233,208 -689,208 z"
                 transform="scale(0.015625)" />
              <path
                 id="DejaVuSans-33"
                 d="m 2597,2516 q 453,-97 707,-404 255,-306 255,-756 0,-690 -475,-1069 -475,-378 -1350,-378 -293,0 -604,58 -311,58 -642,174 v 609 q 262,-153 574,-231 313,-78 654,-78 593,0 904,234 311,234 311,681 0,413 -289,645 -289,233 -804,233 h -544 v 519 h 569 q 465,0 712,186 247,186 247,536 0,359 -255,551 -254,193 -729,193 -260,0 -557,-57 -297,-56 -653,-174 v 562 q 360,100 674,150 314,50 592,50 719,0 1137,-327 419,-326 419,-882 0,-388 -222,-655 -222,-267 -631,-370 z"
                 transform="scale(0.015625)" />
              <path
                 id="DejaVuSans-3b1"
                 d="m 2644,1628 -138,722 q -140,741 -697,741 -418,0 -609,-344 -241,-431 -241,-1000 0,-688 235,-1016 237,-334 615,-334 419,0 644,666 z m 322,956 309,916 h 513 L 3147,1603 3272,919 q 28,-153 137,-281 129,-150 229,-150 h 275 V 0 H 3569 Q 3275,0 3013,263 2884,394 2831,669 2688,322 2394,50 2256,-78 1809,-78 1075,-78 719,397 353,888 353,1747 q 0,919 397,1350 441,481 1059,481 972,0 1157,-994 z"
                 transform="scale(0.015625)" />
            </defs>
            <use
               xlink:href="#DejaVuSans-43"
               id="use4" />
            <use
               xlink:href="#DejaVuSans-44"
               transform="translate(69.824219)"
               id="use5" />
            <use
               xlink:href="#DejaVuSans-52"
               transform="translate(146.82617)"
               id="use6" />
            <use
               xlink:href="#DejaVuSans-33"
               transform="translate(216.30859)"
               id="use7" />
            <use
               xlink:href="#DejaVuSans-3b1"
               transform="translate(279.93164)"
               id="use8" />
          </g>
        </g>
        <g
           id="line2d_2">
          <path
             d="m 339.67,69.311063 h 10 10"
             style="fill:none;stroke:#ff0000;stroke-width:1.5;stroke-linecap:square"
             id="path8" />
          <defs
             id="defs8">
            <path
               id="ma944cc7e74"
               d="M -5,5 H 5 V -5 H -5 Z"
               style="stroke:#ff0000;stroke-linejoin:miter" />
          </defs>
          <g
             id="g9">
            <use
               xlink:href="#ma944cc7e74"
               x="349.67001"
               y="69.311066"
               style="fill:#ff0000;stroke:#ff0000;stroke-linejoin:miter"
               id="use9" />
          </g>
        </g>
        <g
           id="text_2">
          <!-- CDR3β -->
          <g
             transform="matrix(0.1,0,0,-0.1,367.67,72.811063)"
             id="g14">
            <defs
               id="defs9">
              <path
                 id="DejaVuSans-3b2"
                 d="M 1178,216 V -1331 H 600 v 4809 q 0,1425 1331,1425 1357,0 1357,-1203 0,-856 -538,-1169 875,-281 875,-1115 0,-1482 -1506,-1482 -663,0 -941,282 z m 0,750 q 347,-541 963,-541 900,0 900,981 0,882 -1450,813 v 531 q 1134,0 1134,1000 0,684 -731,684 -816,0 -816,-975 z"
                 transform="scale(0.015625)" />
            </defs>
            <use
               xlink:href="#DejaVuSans-43"
               id="use10" />
            <use
               xlink:href="#DejaVuSans-44"
               transform="translate(69.824219)"
               id="use11" />
            <use
               xlink:href="#DejaVuSans-52"
               transform="translate(146.82617)"
               id="use12" />
            <use
               xlink:href="#DejaVuSans-33"
               transform="translate(216.30859)"
               id="use13" />
            <use
               xlink:href="#DejaVuSans-3b2"
               transform="translate(279.93164)"
               id="use14" />
          </g>
        </g>
        <g
           id="line2d_3">
          <path
             d="m 339.67,83.989188 h 10 10"
             style="fill:none;stroke:#0000ff;stroke-width:1.5;stroke-linecap:square"
             id="path14" />
          <defs
             id="defs14">
            <path
               id="m3738a37117"
               d="M -5,5 H 5 V -5 H -5 Z"
               style="stroke:#0000ff;stroke-linejoin:miter" />
          </defs>
          <g
             id="g15">
            <use
               xlink:href="#m3738a37117"
               x="349.67001"
               y="83.989189"
               style="fill:#0000ff;stroke:#0000ff;stroke-linejoin:miter"
               id="use15" />
          </g>
        </g>
        <g
           id="text_3">
          <!-- peptide -->
          <g
             transform="matrix(0.1,0,0,-0.1,367.67,87.489188)"
             id="g22">
            <defs
               id="defs15">
              <path
                 id="DejaVuSans-70"
                 d="M 1159,525 V -1331 H 581 v 4831 h 578 v -531 q 182,312 458,463 277,152 661,152 638,0 1036,-506 399,-506 399,-1331 0,-825 -399,-1332 -398,-506 -1036,-506 -384,0 -661,152 -276,152 -458,464 z m 1957,1222 q 0,634 -261,995 -261,361 -717,361 -457,0 -718,-361 -261,-361 -261,-995 0,-634 261,-995 261,-361 718,-361 456,0 717,361 261,361 261,995 z"
                 transform="scale(0.015625)" />
              <path
                 id="DejaVuSans-65"
                 d="M 3597,1894 V 1613 H 953 q 38,-594 358,-905 320,-311 892,-311 331,0 642,81 311,81 618,244 V 178 Q 3153,47 2828,-22 2503,-91 2169,-91 1331,-91 842,396 353,884 353,1716 q 0,859 464,1363 464,505 1252,505 706,0 1117,-455 411,-454 411,-1235 z m -575,169 q -6,471 -264,752 -258,282 -683,282 -481,0 -770,-272 -289,-272 -333,-766 z"
                 transform="scale(0.015625)" />
              <path
                 id="DejaVuSans-74"
                 d="M 1172,4494 V 3500 H 2356 V 3053 H 1172 V 1153 q 0,-428 117,-550 117,-122 477,-122 h 590 V 0 H 1766 Q 1100,0 847,248 594,497 594,1153 V 3053 H 172 v 447 h 422 v 994 z"
                 transform="scale(0.015625)" />
              <path
                 id="DejaVuSans-69"
                 d="m 603,3500 h 575 V 0 H 603 Z m 0,1363 h 575 V 4134 H 603 Z"
                 transform="scale(0.015625)" />
              <path
                 id="DejaVuSans-64"
                 d="m 2906,2969 v 1894 h 575 V 0 H 2906 V 525 Q 2725,213 2448,61 2172,-91 1784,-91 1150,-91 751,415 353,922 353,1747 q 0,825 398,1331 399,506 1033,506 388,0 664,-152 277,-151 458,-463 z M 947,1747 q 0,-634 261,-995 261,-361 717,-361 456,0 718,361 263,361 263,995 0,634 -263,995 -262,361 -718,361 -456,0 -717,-361 -261,-361 -261,-995 z"
                 transform="scale(0.015625)" />
            </defs>
            <use
               xlink:href="#DejaVuSans-70"
               id="use16" />
            <use
               xlink:href="#DejaVuSans-65"
               transform="translate(63.476562)"
               id="use17" />
            <use
               xlink:href="#DejaVuSans-70"
               transform="translate(125)"
               id="use18" />
            <use
               xlink:href="#DejaVuSans-74"
               transform="translate(188.47656)"
               id="use19" />
            <use
               xlink:href="#DejaVuSans-69"
               transform="translate(227.68555)"
               id="use20" />
            <use
               xlink:href="#DejaVuSans-64"
               transform="translate(255.46875)"
               id="use21" />
            <use
               xlink:href="#DejaVuSans-65"
               transform="translate(318.94531)"
               id="use22" />
          </g>
        </g>
      </g>
    </g>
  </g>
</svg>
