<svg version="1" xmlns="http://www.w3.org/2000/svg" width="250.667" height="250.667" viewBox="0 0 188.000000 188.000000"><path d="M77.7 1.6c-16.5 3-32.2 11.1-45 23.3C18.9 38 10.3 52.8 5.8 70.6c-3.1 12.6-3.1 33.2 0 45.8 5.4 21.4 18.8 41.2 36.8 54.3 6.7 4.8 19.2 10.7 28.9 13.5 11.3 3.2 33.2 3.2 45 0 15.6-4.3 27.2-11 39.4-22.6 13.2-12.7 21.9-27.7 26.3-45.2 3.2-12.9 3.2-33.3-.1-45.9-2.8-10.8-7.4-21.2-13.6-30.4-5.6-8.6-20.1-22.4-28.6-27.4-18.7-10.9-41-14.9-62.2-11.1zM76 59.9c1.8 4.8 1.9 5.6.5 7.1-.8.9-1.5 2.9-1.5 4.5 0 2.4 21.5 62.1 24 66.4 1 1.9-.1 4.6 13.1-31.9 5.5-15.1 10.2-29.6 10.6-32.2.7-5.9-1-8.9-7-11.9-5.4-2.8-6.2-4-3.8-6 1.6-1.3 4.7-1.6 18.4-1.5 12.2.1 16.9.5 18.1 1.5 2.5 2.1 2 2.9-3.1 5.5-6 3-9.6 6.8-12.2 12.6-1 2.5-7.4 19.8-14.1 38.5-6.7 18.7-13.6 37.4-15.2 41.5-3.5 8.9-7.8 17-9 17-1.9 0-5.5-8.5-21.4-50.9C64.3 95.6 56 73.9 55 72c-2.4-4.7-5.5-7.5-11.3-10-5.4-2.4-6.9-4.7-4.2-6.6 1.3-1 6-1.2 18.1-1.1l16.3.2 2.1 5.4z"/></svg>